<svg xmlns="http://www.w3.org/2000/svg" xmlns:xlink="http://www.w3.org/1999/xlink" width="83.289" height="83.294" viewBox="0 0 83.289 83.294"><defs><style>.a{fill:#fff;}.b{fill:#83d15a;}.c{filter:url(#a);}</style><filter id="a" x="0" y="0" width="83.289" height="83.294" filterUnits="userSpaceOnUse"><feOffset dy="3" input="SourceAlpha"/><feGaussianBlur stdDeviation="3" result="b"/><feFlood flood-opacity="0.161"/><feComposite operator="in" in2="b"/><feComposite in="SourceGraphic"/></filter></defs><g transform="translate(9 6)"><g class="c" transform="matrix(1, 0, 0, 1, -9, -6)"><path class="a" d="M54.118,21.447A32.647,32.647,0,1,0,86.75,54.066,32.627,32.627,0,0,0,54.118,21.447M47.808,54.084c.236.218.419.394.609.561,4.014,3.514,8.036,7.018,12.03,10.554a2.991,2.991,0,0,1,.855,1.32,1.664,1.664,0,0,1-.869,1.85,1.94,1.94,0,0,1-2.329-.426Q51.1,61.813,44.091,55.679a1.869,1.869,0,0,1,0-3.173q6.737-5.9,13.481-11.8a9.075,9.075,0,0,1,1.042-.846,1.794,1.794,0,0,1,2.3,2.7,6.152,6.152,0,0,1-.616.584q-5.488,4.8-10.978,9.607c-.492.431-.982.865-1.511,1.331" transform="translate(-12.46 -15.45)"/></g><path class="b" d="M175.746,142.885c.529-.466,1.019-.9,1.511-1.331q5.489-4.8,10.978-9.607a6.156,6.156,0,0,0,.616-.584,1.794,1.794,0,0,0-2.3-2.7,9.076,9.076,0,0,0-1.042.846q-6.743,5.9-13.481,11.8a1.869,1.869,0,0,0,0,3.173q7,6.135,14.015,12.264a1.94,1.94,0,0,0,2.329.426,1.664,1.664,0,0,0,.869-1.85,2.991,2.991,0,0,0-.855-1.32c-3.995-3.536-8.017-7.04-12.03-10.554-.191-.167-.373-.343-.609-.561" transform="translate(-149.401 -110.246)"/></g></svg>